<svg xmlns="http://www.w3.org/2000/svg" version="1.1" xmlns:xlink="http://www.w3.org/1999/xlink" xmlns:svgjs="http://svgjs.dev/svgjs" width="1440" height="200" preserveAspectRatio="none" viewBox="0 0 1440 200"><g mask="url(&quot;#SvgjsMask1150&quot;)" fill="none"><path d="M 0,1 C 48,11.2 144,48 240,52 C 336,56 384,18.8 480,21 C 576,23.2 624,66.2 720,63 C 816,59.8 864,9 960,5 C 1056,1 1104,42.4 1200,43 C 1296,43.6 1392,15 1440,8L1440 200L0 200z" fill="rgba(221, 181, 243, 0.67)"></path><path d="M 0,123 C 26.2,117.6 78.6,95 131,96 C 183.4,97 209.6,130 262,128 C 314.4,126 340.6,91.6 393,86 C 445.4,80.4 471.6,100.8 524,100 C 576.4,99.2 602.6,79.8 655,82 C 707.4,84.2 733.6,109.8 786,111 C 838.4,112.2 864.6,88.6 917,88 C 969.4,87.4 995.6,108 1048,108 C 1100.4,108 1126.6,85.2 1179,88 C 1231.4,90.8 1257.8,124.2 1310,122 C 1362.2,119.8 1414,86 1440,77L1440 200L0 200z" fill="rgba(176, 78, 219, 0.71)"></path><path d="M 0,199 C 36,191 108,159.6 180,159 C 252,158.4 288,198 360,196 C 432,194 468,152.2 540,149 C 612,145.8 648,180 720,180 C 792,180 828,150.8 900,149 C 972,147.2 1008,171 1080,171 C 1152,171 1188,145.2 1260,149 C 1332,152.8 1404,181.8 1440,190L1440 200L0 200z" fill="rgba(113, 34, 171, 0.86)"></path></g><defs><mask id="SvgjsMask1150"><rect width="1440" height="200" fill="#ffffff"></rect></mask></defs></svg>